<?xml version="1.0" encoding="UTF-8" standalone="no"?>
<!DOCTYPE svg PUBLIC "-//W3C//DTD SVG 1.1//EN" "http://www.w3.org/Graphics/SVG/1.1/DTD/svg11.dtd">
<!-- Created with Vectornator (http://vectornator.io/) -->
<svg height="100%" stroke-miterlimit="10" style="fill-rule:nonzero;clip-rule:evenodd;stroke-linecap:round;stroke-linejoin:round;" version="1.1" viewBox="0 0 500 500" width="100%" xml:space="preserve" xmlns="http://www.w3.org/2000/svg" xmlns:vectornator="http://vectornator.io" xmlns:xlink="http://www.w3.org/1999/xlink">
<defs/>
<g id="Untitled" vectornator:layerName="Untitled">
<path d="M223 1.59999C212.4 2.79999 210.1 3.19999 200 5.09999C191.1 6.79999 190.8 6.79999 179.9 10.1C150.3 18.8 123.4 32.6 97 52.4C86.2 60.5 64.1 82.1 55.8 92.5C36 117.7 18.6 150.2 11 176.5C8.4 185.8 5.1 198.8 4.5 202.5C4.1 204.7 3.6 207.7 3.4 209.1C1.2 221.8 0.3 236 0.5 254.5C0.7 266 1 276.4 1.3 277.5C1.5 278.6 2.1 281.7 2.4 284.5C3.6 292.7 4 295.1 6.1 304.5C7.3 309.4 8.3 313.9 8.4 314.5C9.4 319 16 338.3 19.1 345.9C31.6 375.8 49.2 402.1 73 426C108.8 462.1 150.5 484.5 201 495.1C210.7 497.1 213.8 497.6 227 499C235 499.8 274.5 499.6 277 498.7C277.8 498.4 280.4 497.9 282.8 497.6C293.7 496.1 296.2 495.7 306.2 493.5C333.8 487.3 364.4 474.2 388.2 458.2C435.6 426.4 470.8 379.9 488 326.3C491.1 316.6 491.6 314.9 492.6 310C492.9 308.6 493.5 305.9 494 304C497.9 288.9 499.5 272.8 499.5 249C499.4 224.8 497.3 207.5 491.6 185.5C490 179.3 488.8 175.2 488 173.5C487.5 172.4 486.7 169.9 486.1 168C480.7 147.7 459.4 110.4 440.9 88.5C437.2 84.1 418.5 65.3 412.8 60.3C406 54.3 389.4 42.3 380.2 36.6C370.5 30.7 345 18 342.7 18C342 18 341 17.6 340.5 17.1C338 14.9 308.6 6.29999 297 4.49999C294.5 4.09999 291.8 3.59999 291 3.49999C290.2 3.39999 287.3 2.89999 284.5 2.59999C281.8 2.19999 277.9 1.69999 276 1.39999C268.5 0.199993 233.1 0.299993 223 1.59999Z" fill="#000000" fill-rule="nonzero" opacity="1" stroke="none"/>
<g opacity="1">
<clipPath id="ClipPath">
<path d="M199.11 88.3427L247.128 88.3427L247.128 411.877L199.11 411.877L199.11 88.3427Z"/>
</clipPath>
<g clip-path="url(#ClipPath)">
<clipPath id="ClipPath_2">
<path d="M204.102 88.3427L241.907 88.3427C244.663 88.3427 246.899 90.5846 246.899 93.3479L246.899 406.733C246.899 409.496 244.663 411.738 241.907 411.738L204.102 411.738C201.346 411.738 199.11 409.496 199.11 406.733L199.11 93.3479C199.11 90.5846 201.346 88.3427 204.102 88.3427"/>
</clipPath>
<g clip-path="url(#ClipPath_2)">
<path d="M199.11 88.3427L248.576 88.3427L248.576 413.468L199.11 413.468L199.11 88.3427Z" fill="#ffffff" fill-rule="nonzero" opacity="1" stroke="none"/>
</g>
</g>
</g>
<g opacity="1">
<clipPath id="ClipPath_3">
<path d="M175.216 268.862L237.144 268.862L237.144 411.877L175.216 411.877L175.216 268.862Z"/>
</clipPath>
<g clip-path="url(#ClipPath_3)">
<clipPath id="ClipPath_4">
<path d="M180.208 268.862L232.824 268.862C234.146 268.862 235.42 269.392 236.356 270.331C237.292 271.269 237.816 272.543 237.816 273.868L237.816 406.733C237.816 408.058 237.292 409.331 236.356 410.27C235.42 411.213 234.146 411.738 232.824 411.738L180.208 411.738C178.882 411.738 177.613 411.213 176.677 410.27C175.741 409.331 175.216 408.058 175.216 406.733L175.216 273.868C175.216 272.543 175.741 271.269 176.677 270.331C177.613 269.392 178.882 268.862 180.208 268.862"/>
</clipPath>
<g clip-path="url(#ClipPath_4)">
<path d="M175.216 268.862L236.975 268.862L236.975 412.177L175.216 412.177L175.216 268.862Z" fill="#ffffff" fill-rule="nonzero" opacity="1" stroke="none"/>
</g>
</g>
</g>
<g opacity="1">
<clipPath id="ClipPath_5">
<path d="M255.123 88.3427L303.705 88.3427L303.705 411.877L255.123 411.877L255.123 88.3427Z"/>
</clipPath>
<g clip-path="url(#ClipPath_5)">
<clipPath id="ClipPath_6">
<path d="M260.115 88.3427L297.92 88.3427C300.676 88.3427 302.912 90.5846 302.912 93.3479L302.912 406.733C302.912 409.496 300.676 411.738 297.92 411.738L260.115 411.738C257.359 411.738 255.123 409.496 255.123 406.733L255.123 93.3479C255.123 90.5846 257.359 88.3427 260.115 88.3427"/>
</clipPath>
<g clip-path="url(#ClipPath_6)">
<path d="M255.123 88.3427L304.589 88.3427L304.589 413.468L255.123 413.468L255.123 88.3427Z" fill="#ffffff" fill-rule="nonzero" opacity="1" stroke="none"/>
</g>
</g>
</g>
<g opacity="1">
<clipPath id="ClipPath_7">
<path d="M266.498 268.862L327.001 268.862L327.001 411.877L266.498 411.877L266.498 268.862Z"/>
</clipPath>
<g clip-path="url(#ClipPath_7)">
<clipPath id="ClipPath_8">
<path d="M271.49 268.862L321.814 268.862C323.14 268.862 324.409 269.392 325.345 270.331C326.281 271.269 326.806 272.543 326.806 273.868L326.806 406.733C326.806 408.058 326.281 409.331 325.345 410.27C324.409 411.213 323.14 411.738 321.814 411.738L271.49 411.738C270.164 411.738 268.895 411.213 267.959 410.27C267.023 409.331 266.498 408.058 266.498 406.733L266.498 273.868C266.498 272.543 267.023 271.269 267.959 270.331C268.895 269.392 270.164 268.862 271.49 268.862"/>
</clipPath>
<g clip-path="url(#ClipPath_8)">
<path d="M266.498 268.862L326.494 268.862L326.494 412.177L266.498 412.177L266.498 268.862Z" fill="#ffffff" fill-rule="nonzero" opacity="1" stroke="none"/>
</g>
</g>
</g>
</g>
</svg>
